<svg width="111" height="111" viewBox="0 0 111 111" fill="none" xmlns="http://www.w3.org/2000/svg">
<path d="M11.1 8.87964C9.87398 8.87977 8.88013 9.87362 8.88 11.0996V99.8996C8.88013 101.126 9.87398 102.12 11.1 102.12H99.9C101.126 102.12 102.12 101.126 102.12 99.8996V11.0996C102.12 9.87362 101.126 8.87977 99.9 8.87964H11.1ZM13.32 13.3196H97.68V97.6796H13.32V13.3196ZM33.3 51.0596V58.7082H44.4V93.2396H53.28V58.7082H64.38V51.0596H33.3ZM81.4549 51.0813C74.5405 51.0538 66.639 53.1492 66.639 62.8794C66.639 75.6 83.779 75.6031 83.779 81.3418C83.779 81.8857 84.0097 85.8382 77.9602 85.8382C71.9107 85.8382 66.8688 82.0356 66.8688 82.0356V91.2668C66.8688 91.2668 93.2444 99.7977 93.2444 80.5613C93.2421 68.0738 75.944 68.6984 75.944 62.4935C75.944 60.0892 77.652 57.841 82.3828 57.841C87.1136 57.841 91.3019 60.6334 91.3019 60.6334L91.614 52.4081C91.614 52.4081 86.8328 51.1027 81.4549 51.0813Z" fill="#00FFA3"/>
</svg>
